<?xml version="1.0" encoding="utf-8"?>
<!-- Generator: Adobe Illustrator 23.0.0, SVG Export Plug-In . SVG Version: 6.00 Build 0)  -->
<svg version="1.1" id="图层_1" xmlns="http://www.w3.org/2000/svg" xmlns:xlink="http://www.w3.org/1999/xlink" x="0px" y="0px"
	 viewBox="0 0 352 341.1" style="enable-background:new 0 0 352 341.1;" xml:space="preserve">
<style type="text/css">
	.st0{fill:none;}
	.st1{fill-rule:evenodd;clip-rule:evenodd;fill:url(#路径_1_);}
	.st2{fill-rule:evenodd;clip-rule:evenodd;fill:url(#路径-copy_1_);}
	.st3{opacity:0.1;fill-rule:evenodd;clip-rule:evenodd;fill:#7C7C7C;enable-background:new    ;}
	.st4{fill-rule:evenodd;clip-rule:evenodd;fill:url(#SVGID_1_);}
	.st5{fill-rule:evenodd;clip-rule:evenodd;fill:url(#SVGID_2_);}
	.st6{fill-rule:evenodd;clip-rule:evenodd;fill:url(#SVGID_3_);}
	.st7{fill-rule:evenodd;clip-rule:evenodd;fill:url(#SVGID_4_);}
	.st8{fill-rule:evenodd;clip-rule:evenodd;fill:#FEC3BE;}
	.st9{fill-rule:evenodd;clip-rule:evenodd;fill:#8B416F;}
	.st10{fill-rule:evenodd;clip-rule:evenodd;fill:#4D4981;}
	.st11{opacity:5.000000e-02;fill-rule:evenodd;clip-rule:evenodd;enable-background:new    ;}
	.st12{fill-rule:evenodd;clip-rule:evenodd;fill:#FFFFFF;}
	.st13{opacity:0.1;fill-rule:evenodd;clip-rule:evenodd;enable-background:new    ;}
	.st14{fill-rule:evenodd;clip-rule:evenodd;fill:#EF5C3E;}
	.st15{fill-rule:evenodd;clip-rule:evenodd;fill:#784F69;}
	.st16{fill-rule:evenodd;clip-rule:evenodd;fill:#FD6F8D;}
	.st17{opacity:0.224;fill-rule:evenodd;clip-rule:evenodd;fill:#E5E5E5;enable-background:new    ;}
	.st18{fill-rule:evenodd;clip-rule:evenodd;fill:url(#矩形_1_);}
	.st19{fill-rule:evenodd;clip-rule:evenodd;fill:url(#SVGID_5_);}
	.st20{fill-rule:evenodd;clip-rule:evenodd;fill:url(#SVGID_6_);}
	.st21{fill-rule:evenodd;clip-rule:evenodd;fill:url(#SVGID_7_);}
	.st22{fill-rule:evenodd;clip-rule:evenodd;fill:url(#SVGID_8_);}
	.st23{fill-rule:evenodd;clip-rule:evenodd;fill:url(#SVGID_9_);}
	.st24{fill-rule:evenodd;clip-rule:evenodd;fill:url(#SVGID_10_);}
	.st25{fill-rule:evenodd;clip-rule:evenodd;fill:url(#SVGID_11_);}
	.st26{fill-rule:evenodd;clip-rule:evenodd;fill:url(#SVGID_12_);}
	.st27{fill-rule:evenodd;clip-rule:evenodd;fill:url(#SVGID_13_);}
	.st28{fill-rule:evenodd;clip-rule:evenodd;fill:url(#SVGID_14_);}
	.st29{fill-rule:evenodd;clip-rule:evenodd;fill:url(#SVGID_15_);}
	.st30{fill-rule:evenodd;clip-rule:evenodd;fill:url(#SVGID_16_);}
	.st31{fill:#999999;}
	.st32{font-family:'PingFangSC-Regular-GBpc-EUC-H';}
	.st33{font-size:28px;}
</style>
<title>分组 9</title>
<desc>Created with Sketch.</desc>
<g id="NC-Cloud移动端供应链-库管员-待入库">
	<g id="待入库-序列号管理-初始空白页面-键盘收起" transform="translate(-199.000000, -285.000000)">
		<g id="分组-9" transform="translate(199.000000, 285.000000)">
			<rect id="Rectangle" y="3" class="st0" width="352" height="345"/>
			<g id="分组-8">
				<g id="分组-2" transform="translate(0.000000, 13.000000)">
					
						<linearGradient id="路径_1_" gradientUnits="userSpaceOnUse" x1="-127.3466" y1="542.3138" x2="-127.3466" y2="541.3311" gradientTransform="matrix(111.8449 0 0 -40.6249 14538.9932 22031.4375)">
						<stop  offset="0" style="stop-color:#E4E4E4"/>
						<stop  offset="1" style="stop-color:#F3F2F2"/>
					</linearGradient>
					<path id="路径" class="st1" d="M351.8,23.9c0-5.1-7.2-9.3-16.2-9.3c-0.2,0-0.4,0-0.5,0C332.4,6.3,319.7,0,304.4,0
						c-13,0-24.2,4.6-28.9,11.1c-3.5-0.9-7.1-1.4-10.7-1.4c-13.7,0-24.8,6.4-24.8,14.2c0,7.1,9.2,13,21.1,14.1
						c8.7,1.6,22.3,2.6,37.5,2.6c25.9,0,44.8-5,45.3-8.7C348.7,30.3,351.8,27.3,351.8,23.9z"/>
					
						<linearGradient id="路径-copy_1_" gradientUnits="userSpaceOnUse" x1="-126.8213" y1="539.638" x2="-126.8213" y2="538.6553" gradientTransform="matrix(76.8449 0 0 -27.6249 9789.9922 14953.4375)">
						<stop  offset="0" style="stop-color:#E4E4E4"/>
						<stop  offset="1" style="stop-color:#F3F2F2"/>
					</linearGradient>
					<path id="路径-copy" class="st2" d="M82.8,62.3c0-3.5-5-6.3-11.1-6.3c-0.1,0-0.2,0-0.4,0c-1.9-5.7-10.6-10-21.1-10
						c-9,0-16.6,3.1-19.9,7.5c-2.4-0.6-4.8-0.9-7.3-0.9c-9.4,0-17,4.3-17,9.7c0,4.9,6.3,8.9,14.5,9.6c6,1.1,15.3,1.8,25.8,1.8
						c17.8,0,30.8-3.4,31.1-5.9C80.7,66.6,82.8,64.6,82.8,62.3z"/>
					<g id="分组-7" transform="translate(170.000000, 194.000000)">
						<ellipse id="椭圆形" class="st3" cx="23.4" cy="14.4" rx="23.1" ry="3.2"/>
						
							<linearGradient id="SVGID_1_" gradientUnits="userSpaceOnUse" x1="-292.9382" y1="337.2214" x2="-292.9382" y2="336.3676" gradientTransform="matrix(23.1938 0 0 -13.8886 6817.752 4685.5552)">
							<stop  offset="0" style="stop-color:#FCD1C6"/>
							<stop  offset="1" style="stop-color:#F7A494"/>
						</linearGradient>
						<path class="st4" d="M14.1,10.4c-1-0.8-1.8-2-2.2-3.3c-0.3-1.3,0.3-2.7,1.5-3.3c1.4-0.5,2.9,0.4,4,1.4c1.1,1,2.4,2.1,3.9,1.9
							c-1.5-1.4-2.2-3.5-1.8-5.5c0.1-0.4,0.2-0.8,0.5-1.1C20.7-0.3,22.1,0,23,0.7c2.9,2.1,3.8,6,3.8,9.6c0.1-1.3,0.1-2.7,0-4
							c-0.1-1.3,0.4-2.7,1.5-3.5c0.7-0.4,1.5-0.6,2.3-0.5c1.3-0.2,2.7,0.2,3.7,1c1.1,1.2,0.8,3.2-0.2,4.5C33,9,31.7,10,30.3,10.8
							c-1.1,0.6-2,1.5-2.7,2.6c-0.1,0.1-0.1,0.3-0.2,0.5h-8.3C17.3,13,15.6,11.8,14.1,10.4z"/>
					</g>
					<g id="分组-6" transform="translate(257.000000, 201.375114)">
						<ellipse class="st3" cx="17.3" cy="17.9" rx="16.4" ry="2.3"/>
						
							<linearGradient id="SVGID_2_" gradientUnits="userSpaceOnUse" x1="-379.9485" y1="329.8307" x2="-379.9485" y2="328.9769" gradientTransform="matrix(23.237 0 0 -13.8756 8851.0557 4578.7202)">
							<stop  offset="0" style="stop-color:#FCD1C6"/>
							<stop  offset="1" style="stop-color:#F7A494"/>
						</linearGradient>
						<path class="st5" d="M12.8,10.5c-1-0.8-1.8-2-2.2-3.3C10.3,6,11,4.6,12.2,4c1.4-0.5,2.9,0.4,4,1.4s2.4,2.1,3.9,1.9
							c-1.5-1.4-2.2-3.5-1.8-5.5c0.1-0.4,0.2-0.8,0.5-1.1c0.8-0.8,2.2-0.5,3.1,0.2c2.9,2.1,3.8,6.1,3.8,9.6c0.2-1.3,0.2-2.7,0-4
							c-0.1-1.3,0.4-2.7,1.5-3.5c0.7-0.4,1.5-0.6,2.3-0.5c1.3-0.2,2.7,0.2,3.7,1.1c1.1,1.2,0.8,3.2-0.1,4.5c-1.1,1.2-2.4,2.2-3.8,3
							c-1.1,0.6-2,1.5-2.7,2.6c-0.1,0.1-0.1,0.3-0.2,0.5H18C16.1,13.1,14.4,11.9,12.8,10.5z"/>
					</g>
					<g id="分组-5" transform="translate(109.000000, 222.000000)">
						<ellipse class="st3" cx="16.4" cy="15.7" rx="16.4" ry="2.3"/>
						
							<linearGradient id="SVGID_3_" gradientUnits="userSpaceOnUse" x1="-231.9365" y1="309.2058" x2="-231.9365" y2="308.352" gradientTransform="matrix(23.187 0 0 -13.8756 5394.6318 4292.5381)">
							<stop  offset="0" style="stop-color:#FCD1C6"/>
							<stop  offset="1" style="stop-color:#F7A494"/>
						</linearGradient>
						<path class="st6" d="M7.4,10.5c-1-0.8-1.8-2-2.2-3.3C4.9,6,5.5,4.6,6.7,4c1.4-0.5,2.9,0.4,4,1.4s2.4,2.1,3.9,1.9
							c-1.5-1.4-2.2-3.5-1.8-5.5c0.1-0.4,0.2-0.8,0.5-1.1c0.8-0.8,2.2-0.5,3.1,0.2c2.9,2.1,3.8,6.1,3.8,9.6c0.1-1.3,0.1-2.7,0-4
							C20,5,20.6,3.7,21.6,2.9c0.7-0.4,1.5-0.6,2.3-0.5c1.3-0.2,2.7,0.2,3.7,1.1c1.1,1.2,0.8,3.2-0.1,4.5c-1.1,1.2-2.4,2.2-3.8,3
							c-1.1,0.6-2,1.5-2.7,2.6c-0.1,0.1-0.1,0.3-0.2,0.5h-8.3C10.6,13.1,8.9,11.9,7.4,10.5z"/>
					</g>
					<g id="分组" transform="translate(193.000000, 51.000000)">
						
							<linearGradient id="SVGID_4_" gradientUnits="userSpaceOnUse" x1="-319.6029" y1="494.3381" x2="-319.6029" y2="495.3381" gradientTransform="matrix(68 0 0 -139 21766.998 68852.2969)">
							<stop  offset="0" style="stop-color:#808080;stop-opacity:0.25"/>
							<stop  offset="0.54" style="stop-color:#808080;stop-opacity:0.12"/>
							<stop  offset="1" style="stop-color:#808080;stop-opacity:0.1"/>
						</linearGradient>
						<path class="st7" d="M66.9,114.7c-1.2-0.4-3-0.9-4.4-0.7c-1.3-0.5-4.5-1.8-6.7-3.7c0.1-1.9,0-3.8-0.1-5.7
							c-1.1-12.7,1.4-21.1,1.4-21.1s2-6.4,1.7-11.7c0.1,0.2,0.2,0.4,0.2,0.4c0.2-4.6,1.7-9.3,2.9-12.3c0,0,0.1,0,0.1,0l1.3-3.1
							c0.1-0.2,0.2-0.4,0.2-0.6l0.2-0.5l-0.1,0c0-0.1,0-0.2,0.1-0.3c0.8-3.5,1.5-11.9,1.5-11.9c2.2-8.8-3-14.2-3-14.2l-8.9-7.8
							c0,0.1,0.1,0.2,0.1,0.3l-0.1-0.1c-0.1-0.4-0.3-0.8-0.4-1.3c0.3-0.2,0.6-0.5,0.9-0.8c1-1,1.7-2.2,2-3.6
							c0.2-1.1,0.2-2.2,0.1-3.3l-0.1-3.7c0-0.7-0.1-1.5-0.2-2.2c-0.7-3-3.7-5-6.7-5.2c-1,0-1.9,0-2.9,0.2C45.1,2,44.4,2,43.6,2
							c-0.1,0-0.2,0-0.3-0.1c-0.1-0.1-0.1-0.2-0.1-0.3c0-0.4,0.1-0.7,0.3-1c0.1-0.1,0.3-0.2,0.4-0.2l-0.2,0.1
							c0.1-0.1,0.2-0.1,0.4-0.2c-0.8,0.1-1.5,0.4-2.2,0.8c-0.2,0.1-0.4,0.3-0.5,0.4c-0.4,0.4-0.7,0.9-0.8,1.4
							c-0.4-0.3-0.6-0.7-0.8-1.2c0-0.2,0-0.4,0-0.6c-0.1,0.1-0.1,0.1-0.2,0.2c0,0,0,0,0-0.1c-0.6,0.7-1,1.5-1.2,2.4
							c-0.2-0.2-0.2-0.4-0.2-0.7c0,0.1-0.1,0.3-0.1,0.4c0-0.1,0-0.2,0-0.3c-0.3,1.1-0.5,2.2-0.5,3.3c0,1.1,0.5,2.9,1.7,3.3
							c0.1,0,0.1,0,0.2,0.1C38.2,12,38,14.7,39,17c1,2.3,3.1,4,5.6,4.4c0,0.1,0,0.3,0.1,0.4h0c0,0.3,0.1,0.6,0.1,1
							c-0.3,0.3-0.6,0.6-1,0.8c-1,0.6-2.1,1-3.3,1.1c-1.4,0.1-2.7,0.5-3.9,1.2c-1.4,0.8-3,2-3.5,3.4c-0.8,2.4-5.4,6.1-8.4,6.5
							l-1.1-0.1l-0.1,0v0l-0.3,0h0h-0.1v0l-0.3,0c0,0,0,0.1-0.1,0.4c-1.5-0.5-4.8-2-9-5.9c-4.7-4.3-11.1-3.5-13.5-2.9
							c-0.2,0-0.3,0.2-0.3,0.4c0,0.2,0.1,0.3,0.2,0.4c1,0.5,2.5,1.3,3.2,1.4c0,0-1.5,1.6,0.1,2.4C3.9,32,4.4,32,4.7,31.7
							c0.8-0.6,2.9,0.7,5.9,1.4c0,0,8.6,9,12.9,10.4c0.1,0.2,0.2,0.4,0.3,0.6l0.3,0v0h0.1l0,0.3c0,0,6.6-0.4,8.8-2.8
							c0.2-0.1,0.3-0.3,0.4-0.5l-2.3,29.4h0l0,0.3h1.7c0.1,3.6,0,7.2-0.5,10.8v19.1c0,0-0.1,1.7,3.4,4.2c3.6,2.6,7.1,5.3,10.5,8.2
							l0.4,0.4c-0.6,5.9-2,16.8-3.1,17.2l0.7,0.1c-1.2,1.5-4.5,5.6-5.5,5.7c-1.2,0.1-2.1,2.1,0,2.5c4.1,0.7,8.4,0.3,12.3-1.2
							c0.8-0.3,1.3-1.2,1.2-2l-0.4-3.1c0.1,0,0.1,0.1,0.2,0.2c0.3,0.8,0-1.1,0-1.1c1.1-3.7,2-7.5,2.7-11.3l4.1,3.6
							c0,0,0.1-0.1,0.2-0.3c1,2.3,2.8,7,2.4,10.5c-0.6,4.7,4.7,0.6,4.2-2.2c-0.4-2.3,1.6-11.8,2.3-15.4
							C68.1,115.7,67.7,114.9,66.9,114.7z"/>
						<path class="st8" d="M22.6,36.3c0,0-3.8-0.7-9.4-5.8c-4.5-4.1-10.5-3.3-12.8-2.8c-0.2,0-0.3,0.2-0.3,0.3s0.1,0.3,0.2,0.4
							c0.9,0.5,2.4,1.3,3.1,1.4c0,0-1.4,1.5,0.1,2.3c0.4,0.2,0.8,0.1,1.1-0.1c0.7-0.5,2.7,0.7,5.6,1.3c0,0,11.3,11.8,13.9,9.8
							L22.6,36.3z"/>
						<path class="st8" d="M43,20c0,0,1.2,4.5,0,7.7l5.3,0.7l4.7-2.1v-2.8c0,0-2.2-4.2-1.6-9.1L43,20z"/>
						<path class="st9" d="M57,121.5c0,0,3.8,7,3.2,11.7c-0.6,4.7,4.9,0.5,4.3-2.2c-0.5-2.2,1.6-11.6,2.4-15.1
							c0.2-0.8-0.3-1.6-1.1-1.8c-1.7-0.5-4.7-1.2-6.1-0.2C57.6,115.3,57,121.5,57,121.5z"/>
						<path class="st9" d="M44.8,127.7c0,0-4.5,6.4-5.6,6.6s-2,2.2,0,2.6c3.9,0.8,8,0.3,11.7-1.3c0.8-0.3,1.2-1.2,1.1-2.1l-0.8-6.3
							L44.8,127.7z"/>
						<path class="st10" d="M36.5,65.3l-4.4,0.6c0.6,5.2,0.6,10.5-0.1,15.7v18.8c0,0-0.1,1.7,3.3,4.1c3.5,2.5,7,5.2,10.2,8.1
							l12.2,10.8c0,0,4.9-6,4.2-9.6c0,0-8.1-2.6-9.2-6.9c-0.6-2.4-3.8-4.5-6.3-5.8c-3.3-1.6-5.1-5.4-4.2-9.1
							c0.1-0.6,0.4-1.2,0.7-1.8c2.2-3.8,5.3-12.5,5.3-12.5l-5.9-11.5L36.5,65.3z"/>
						<path class="st11" d="M36.5,65.3l-4.4,0.6c0.6,5.2,0.6,10.5-0.1,15.7v18.8c0,0-0.1,1.7,3.3,4.1c3.5,2.5,7,5.2,10.2,8.1
							l12.2,10.8c0,0,4.9-6,4.2-9.6c0,0-8.1-2.6-9.2-6.9c-0.6-2.4-3.8-4.5-6.3-5.8c-3.3-1.6-5.1-5.4-4.2-9.1
							c0.1-0.6,0.4-1.2,0.7-1.8c2.2-3.8,5.3-12.5,5.3-12.5l-5.9-11.5L36.5,65.3z"/>
						<path class="st10" d="M43.3,128.9c0,0,7.9,1.4,8.2,2.2c0.3,0.8,0-1.1,0-1.1s4.6-14,3.5-26.3s1.3-20.5,1.3-20.5
							s2.8-9.2,1.2-14.5c-1.6-5.3-18.5-3-18.5-3s5.9,14,5.8,20.6c0,0,0.7,20.1,1.9,22.4C46.6,108.7,44.8,128.4,43.3,128.9z"/>
						<path class="st12" d="M44.1,24.3c0,0,0.8,5,8.9,2.8l-5.4,41.1c0,0-15.7,0.5-15.6-1.4L35.2,42L44.1,24.3z"/>
						<path class="st13" d="M44,24.3c-1.1,1-2.5,1.7-4,1.8c-1.4,0.1-2.7,0.5-3.9,1.1c-1.4,0.8-3,1.9-3.4,3.3c-1,2.7-7,7.1-9.7,6.2
							l1,8.1c0,0,7.8-0.4,9.2-3.4l-2.3,28.8h2.1c0,0,1.1-7.8,1.9-9.4s2.5-10.5,2.6-12.7s2.2-14.5,4-16.7l2.7-6.4L44,24.3z"/>
						<path class="st13" d="M44,24.3c-1.2,0.9-2.7,1.5-4.2,1.7c-1.3,0.1-2.7,0.5-3.8,1.1c-1.4,0.8-2.9,1.9-3.4,3.3
							c-0.9,2.7-6.9,7.2-9.6,6.2l0.9,8.1c0,0,7.7-0.4,9-3.4l-2.3,28.9h2c0,0,1.1-7.8,1.9-9.5c0.8-1.6,2.4-10.5,2.6-12.7
							c0.1-2.2,2.2-14.6,3.9-16.7l2.9-6.3V24.3z"/>
						<path class="st14" d="M44,24.3c-1.2,0.9-2.6,1.5-4.2,1.7c-1.3,0.1-2.7,0.5-3.8,1.1c-1.4,0.8-2.9,1.9-3.4,3.3
							c-0.9,2.7-6.9,7.2-9.6,6.2l0.9,8.1c0,0,7.7-0.4,9-3.4l-2.3,28.9h2c0,0,1.1-7.8,1.9-9.5s2.4-10.5,2.6-12.7
							c0.1-2.2,2.2-14.6,3.9-16.7l2.9-6.3L44,24.3z"/>
						<path class="st13" d="M50.7,19c-0.2-1.3,0.2-2.1,0.3-3.7l-7,5.9c0,0,0.2,0.8,0.3,2c0.4,0.1,0.7,0.1,1.1,0.1
							C47.8,23.3,49.5,21.2,50.7,19z"/>
						<circle class="st8" cx="44.5" cy="14.8" r="7.5"/>
						<path class="st13" d="M37,8.2c0-1.2,0.2-2.5,0.6-3.6c-0.3,0.4-0.2,0.9,0.2,1.2c0.2-1.3,0.9-2.4,1.9-3.3
							c-0.5,0.1-0.8,0.7-0.7,1.2c0.2,0.5,0.5,0.9,0.9,1.3c0-0.8,0.5-1.5,1.1-1.9c0.7-0.4,1.4-0.7,2.2-0.8c-0.5,0.2-0.9,0.7-0.8,1.3
							c0,0.1,0,0.2,0.1,0.3c0.1,0,0.2,0.1,0.3,0.1c0.8,0,1.6,0,2.3-0.1c1-0.1,1.9-0.2,2.9-0.2c3,0.1,6,2.1,6.7,5
							c0.1,0.7,0.2,1.4,0.2,2.1l0.1,3.6c0.1,1.1,0,2.1-0.1,3.2c-0.4,2-1.7,3.6-3.5,4.6c-1.1-1.5-1.2-3.5-1.5-5.4
							c-0.1-0.4-0.2-0.8-0.5-1.2c-0.3-0.4-0.7-0.5-1.2-0.4c-0.4,0.2-0.6,0.8-0.2,1c-0.3,0.3-0.9,0.1-1.2-0.2c-0.9-0.9-1.6-2-1.9-3.3
							c-0.1-0.6-0.3-1.4-0.9-1.6c-0.2-0.1-0.4-0.1-0.7,0c-1.3,0.1-3.4,0.6-4.6,0.2C37.5,11,37,9.3,37,8.2z"/>
						<path class="st15" d="M37,7.2c0-1.2,0.2-2.5,0.6-3.6c-0.3,0.4-0.2,0.9,0.2,1.2c0.2-1.3,0.9-2.4,1.9-3.3
							c-0.5,0.1-0.8,0.7-0.7,1.3c0.2,0.5,0.5,0.9,0.9,1.3c0-0.8,0.5-1.5,1.1-1.9c0.7-0.4,1.4-0.7,2.2-0.8c-0.5,0.2-0.9,0.7-0.8,1.3
							c0,0.1,0,0.2,0.1,0.3c0.1,0,0.2,0.1,0.3,0.1c0.8,0,1.6,0,2.3-0.1c1-0.1,1.9-0.2,2.9-0.2c3,0.1,6,2.1,6.7,5
							c0.1,0.7,0.2,1.4,0.2,2.1l0.1,3.6c0.1,1.1,0,2.1-0.1,3.2c-0.4,2-1.7,3.6-3.5,4.6c-1.1-1.5-1.2-3.5-1.5-5.4
							c-0.1-0.4-0.2-0.8-0.5-1.2c-0.3-0.4-0.7-0.5-1.2-0.4c-0.4,0.2-0.6,0.8-0.2,1c-0.3,0.3-0.9,0.1-1.2-0.2c-0.9-0.9-1.6-2-1.9-3.3
							c-0.1-0.6-0.3-1.4-0.9-1.6c-0.2-0.1-0.4-0.1-0.7,0c-1.3,0.1-3.4,0.6-4.6,0.2C37.5,10,37,8.3,37,7.2z"/>
						<path class="st13" d="M22.4,36.3c0,0-1.4,4.9,1.2,8l1.4-0.1l-0.8-7.8L22.4,36.3z"/>
						<path class="st16" d="M22.4,36.3c0,0-1.4,4.9,1.2,8l1.4-0.1l-0.8-7.8L22.4,36.3z"/>
						<path class="st13" d="M52.6,22.3l8.9,7.6c0,0,5.2,5.4,3,14c0,0-1,12.6-2.1,13.2c0,0-3.9,7.7-4.1,15c0,0-5.2-10.4-7.5-4.1
							S43,75.3,43,75.3l3-37.4C46,37.9,53.7,24.6,52.6,22.3z"/>
						<path class="st14" d="M52.6,22.3l8.9,7.6c0,0,5.2,5.4,3,14c0,0-1,12.6-2.1,13.2c0,0-3.9,7.7-4.1,15c0,0-5.4-10.9-7.8-4.6
							c-2.3,6.3-7.5,7.8-7.5,7.8l3-37.4C46,37.9,53.7,24.6,52.6,22.3z"/>
						<path class="st8" d="M56.1,54.6c0,0,2.2-1.4,5.9,2.5l-9,15.2L50,68C50,68,56.4,56.3,56.1,54.6z"/>
						<path class="st13" d="M54,55.6c0,0,4.6,5.4,6.4,4.6l1.6-4.1l-6.2-2.8L54,55.6z"/>
						<path class="st16" d="M54,54.6c0,0,4.6,5.4,6.4,4.6l1.6-4.1l-6.2-2.8L54,54.6z"/>
						<path class="st13" d="M50.8,67.3c0,0,2.1,4.7,3.2,5l-1.6,2L50,69.4L50.8,67.3z"/>
						<path class="st10" d="M50.8,67.3c0,0,2.1,4.7,3.2,5l-1.6,2L50,69.4L50.8,67.3z"/>
					</g>
					<circle class="st17" cx="10.5" cy="130.5" r="10.5"/>
				</g>
				<g id="分组-4" transform="translate(37.000000, 0.000000)">
					<g>
						
							<linearGradient id="矩形_1_" gradientUnits="userSpaceOnUse" x1="-165.1352" y1="559.0166" x2="-164.4919" y2="559.3406" gradientTransform="matrix(141 0 0 -189 23286 105801)">
							<stop  offset="0" style="stop-color:#F27A62"/>
							<stop  offset="1" style="stop-color:#FFE9E5"/>
						</linearGradient>
						<polygon id="矩形" class="st18" points="9,85 150,3 150,104 9,192 						"/>
						
							<linearGradient id="SVGID_5_" gradientUnits="userSpaceOnUse" x1="-165.0668" y1="557.3411" x2="-164.1776" y2="558.2726" gradientTransform="matrix(150 0 0 -85 24771 47454)">
							<stop  offset="0" style="stop-color:#F17056"/>
							<stop  offset="1" style="stop-color:#FFE9E5"/>
						</linearGradient>
						<polygon class="st19" points="0,81 141,0 150,3 9,85 						"/>
						
							<linearGradient id="SVGID_6_" gradientUnits="userSpaceOnUse" x1="-151.1667" y1="558.9189" x2="-151.1667" y2="557.9189" gradientTransform="matrix(9 0 0 -111 1365 62121)">
							<stop  offset="0" style="stop-color:#FFE9E5"/>
							<stop  offset="1" style="stop-color:#F16C51"/>
						</linearGradient>
						<polygon class="st20" points="0,81 9,85 9,192 0,188 						"/>
					</g>
					<g transform="translate(47.000000, 111.000000)">
						
							<linearGradient id="SVGID_7_" gradientUnits="userSpaceOnUse" x1="-199.6" y1="446.6026" x2="-199.6" y2="445.9605" gradientTransform="matrix(10 0 0 -76 2010 33974)">
							<stop  offset="0" style="stop-color:#FFE9E5"/>
							<stop  offset="1" style="stop-color:#F16E54"/>
						</linearGradient>
						<polygon class="st21" points="9,11 19,5 19,75 9,81 						"/>
						
							<linearGradient id="SVGID_8_" gradientUnits="userSpaceOnUse" x1="-198.1667" y1="446.8784" x2="-198.1667" y2="446.1639" gradientTransform="matrix(9 0 0 -74 1788 33076)">
							<stop  offset="0" style="stop-color:#FEDBD4"/>
							<stop  offset="1" style="stop-color:#EF5C3E"/>
						</linearGradient>
						<polygon class="st22" points="0,7 9,11 9,81 0,77 						"/>
						
							<linearGradient id="SVGID_9_" gradientUnits="userSpaceOnUse" x1="-205.7105" y1="429" x2="-205.7105" y2="428" gradientTransform="matrix(19 0 0 -11 3918 4719)">
							<stop  offset="0" style="stop-color:#FFE9E5"/>
							<stop  offset="1" style="stop-color:#F8B0A1"/>
						</linearGradient>
						<polygon class="st23" points="0,7 9.5,0 19,5 9,11 						"/>
					</g>
					<g id="分组-copy" transform="translate(85.000000, 109.000000)">
						
							<linearGradient id="SVGID_10_" gradientUnits="userSpaceOnUse" x1="-237.6" y1="447.517" x2="-237.6" y2="446.875" gradientTransform="matrix(10 0 0 -56 2390 25086)">
							<stop  offset="0" style="stop-color:#FFE9E5"/>
							<stop  offset="1" style="stop-color:#F16E54"/>
						</linearGradient>
						<polygon class="st24" points="9,11 19,5 19,55 9,61 						"/>
						
							<linearGradient id="SVGID_11_" gradientUnits="userSpaceOnUse" x1="-236.1667" y1="447.7222" x2="-236.1667" y2="447.0078" gradientTransform="matrix(9 0 0 -54 2130 24184)">
							<stop  offset="0" style="stop-color:#FEDBD4"/>
							<stop  offset="1" style="stop-color:#EF5C3E"/>
						</linearGradient>
						<polygon class="st25" points="0,7 9,11 9,61 0,57 						"/>
						
							<linearGradient id="SVGID_12_" gradientUnits="userSpaceOnUse" x1="-243.7105" y1="431" x2="-243.7105" y2="430" gradientTransform="matrix(19 0 0 -11 4640 4741)">
							<stop  offset="0" style="stop-color:#FFE9E5"/>
							<stop  offset="1" style="stop-color:#F8B0A1"/>
						</linearGradient>
						<polygon class="st26" points="0,7 9.5,0 19,5 9,11 						"/>
					</g>
					<g id="分组-copy-2" transform="translate(115.000000, 109.000000)">
						
							<linearGradient id="SVGID_13_" gradientUnits="userSpaceOnUse" x1="-267.6" y1="445.3988" x2="-267.6" y2="444.7567" gradientTransform="matrix(10 0 0 -37 2690 16498)">
							<stop  offset="0" style="stop-color:#FFE9E5"/>
							<stop  offset="1" style="stop-color:#F16E54"/>
						</linearGradient>
						<polygon class="st27" points="9,11 19,5 19,36 9,42 						"/>
						
							<linearGradient id="SVGID_14_" gradientUnits="userSpaceOnUse" x1="-266.1667" y1="445.4" x2="-266.1667" y2="444.6855" gradientTransform="matrix(9 0 0 -35 2400 15596)">
							<stop  offset="0" style="stop-color:#FEDBD4"/>
							<stop  offset="1" style="stop-color:#EF5C3E"/>
						</linearGradient>
						<polygon class="st28" points="0,7 9,11 9,42 0,38 						"/>
						
							<linearGradient id="SVGID_15_" gradientUnits="userSpaceOnUse" x1="-273.7105" y1="431" x2="-273.7105" y2="430" gradientTransform="matrix(19 0 0 -11 5210 4741)">
							<stop  offset="0" style="stop-color:#FFE9E5"/>
							<stop  offset="1" style="stop-color:#F8B0A1"/>
						</linearGradient>
						<polygon class="st29" points="0,7 9.5,0 19,5 9,11 						"/>
					</g>
				</g>
				<g id="分组-3" transform="translate(276.000000, 130.000000)">
					
						<linearGradient id="SVGID_16_" gradientUnits="userSpaceOnUse" x1="-402.5454" y1="428.2455" x2="-402.5454" y2="427.5668" gradientTransform="matrix(66 0 0 -94.9369 26601 40687.3516)">
						<stop  offset="0" style="stop-color:#FDE0DB"/>
						<stop  offset="1" style="stop-color:#F17056"/>
					</linearGradient>
					<path class="st30" d="M4.2,0.8l60,25.5c1.1,0.5,1.8,1.6,1.8,2.8v63.5c0,1.7-1.3,3-3,3c-0.4,0-0.8-0.1-1.2-0.2l-60-25.5
						C0.7,69.3,0,68.2,0,67V3.5c0-1.7,1.3-3,3-3C3.4,0.5,3.8,0.6,4.2,0.8z"/>
					<path id="合并形状" class="st12" d="M12.7,26.1l36,14.4c0.8,0.3,1.3,1,1.3,1.9V46c0,1.1-0.9,2-2,2c-0.3,0-0.5,0-0.7-0.1
						l-36-14.4c-0.8-0.3-1.3-1-1.3-1.9V28c0-1.1,0.9-2,2-2C12.3,26,12.5,26,12.7,26.1z M13.7,42l24,8.6c0.8,0.3,1.3,1,1.3,1.9v3.8
						c0,1.1-0.9,2-2,2c-0.2,0-0.5,0-0.7-0.1l-24-8.6c-0.8-0.3-1.3-1-1.3-1.9v-3.8c0-1.1,0.9-2,2-2C13.2,41.8,13.5,41.9,13.7,42z
						 M13.7,56l41,15.5c0.8,0.3,1.3,1,1.3,1.9v3.7c0,1.1-0.9,2-2,2c-0.2,0-0.5,0-0.7-0.1l-41-15.5c-0.8-0.3-1.3-1-1.3-1.9v-3.7
						c0-1.1,0.9-2,2-2C13.2,55.9,13.5,55.9,13.7,56z"/>
				</g>
			</g>
			<text transform="matrix(1 0 0 1 120 332)" class="st31 st32 st33">暂无数据</text>
		</g>
	</g>
</g>
</svg>
